<?xml version="1.0" encoding="UTF-8" standalone="no"?>
<!DOCTYPE svg PUBLIC "-//W3C//DTD SVG 1.1//EN"
 "http://www.w3.org/Graphics/SVG/1.1/DTD/svg11.dtd">
<!-- Generated by graphviz version 2.40.1 (20161225.0304)
 -->
<!-- Title: dependencies Pages: 1 -->
<svg width="504pt" height="284pt"
 viewBox="0.00 0.00 504.00 284.00" xmlns="http://www.w3.org/2000/svg" xmlns:xlink="http://www.w3.org/1999/xlink">
<g id="graph0" class="graph" transform="scale(1 1) rotate(0) translate(4 280)">
<title>dependencies</title>
<polygon fill="#ffffff" stroke="transparent" points="-4,4 -4,-280 500,-280 500,4 -4,4"/>
<text text-anchor="start" x="227.0091" y="-42.4" font-family="sans-serif" font-weight="bold" font-size="14.00" fill="#000000">Legend</text>
<polygon fill="#ffffb3" stroke="transparent" points="14,-10 14,-30 34,-30 34,-10 14,-10"/>
<text text-anchor="start" x="37.629" y="-15.4" font-family="sans-serif" font-size="14.00" fill="#000000"> &#160;Declarations</text>
<polygon fill="#8dd3c7" stroke="transparent" points="127,-10 127,-30 147,-30 147,-10 127,-10"/>
<text text-anchor="start" x="150.7251" y="-15.4" font-family="sans-serif" font-size="14.00" fill="#000000"> &#160;Module</text>
<polygon fill="#80b1d3" stroke="transparent" points="213,-10 213,-30 233,-30 233,-10 213,-10"/>
<text text-anchor="start" x="236.7812" y="-15.4" font-family="sans-serif" font-size="14.00" fill="#000000"> &#160;Bootstrap</text>
<polygon fill="#fdb462" stroke="transparent" points="310,-10 310,-30 330,-30 330,-10 310,-10"/>
<text text-anchor="start" x="333.6732" y="-15.4" font-family="sans-serif" font-size="14.00" fill="#000000"> &#160;Providers</text>
<polygon fill="#fb8072" stroke="transparent" points="406,-10 406,-30 426,-30 426,-10 406,-10"/>
<text text-anchor="start" x="429.7258" y="-15.4" font-family="sans-serif" font-size="14.00" fill="#000000"> &#160;Exports</text>
<g id="clust1" class="cluster">
<title>cluster_SystemModule</title>
<polygon fill="none" stroke="#000000" stroke-dasharray="1,5" points="87.5,-70 87.5,-268 408.5,-268 408.5,-70 87.5,-70"/>
</g>
<g id="clust2" class="cluster">
<title>cluster_SystemModule_declarations</title>
<polygon fill="none" stroke="#000000" points="99.5,-78 99.5,-130 397.5,-130 397.5,-78 99.5,-78"/>
</g>
<g id="clust6" class="cluster">
<title>cluster_SystemModule_exports</title>
<polygon fill="none" stroke="#000000" points="95.5,-208 95.5,-260 400.5,-260 400.5,-208 95.5,-208"/>
</g>
<!-- LoadingComponent -->
<g id="node1" class="node">
<title>LoadingComponent</title>
<polygon fill="#ffffb3" stroke="#000000" points="389.4902,-122 261.5098,-122 261.5098,-86 389.4902,-86 389.4902,-122"/>
<text text-anchor="middle" x="325.5" y="-99.8" font-family="Times,serif" font-size="14.00" fill="#000000">LoadingComponent</text>
</g>
<!-- SystemModule -->
<g id="node3" class="node">
<title>SystemModule</title>
<polygon fill="#8dd3c7" stroke="#000000" points="226.7731,-187 223.7731,-191 202.7731,-191 199.7731,-187 126.2269,-187 126.2269,-151 226.7731,-151 226.7731,-187"/>
<text text-anchor="middle" x="176.5" y="-164.8" font-family="Times,serif" font-size="14.00" fill="#000000">SystemModule</text>
</g>
<!-- LoadingComponent&#45;&gt;SystemModule -->
<g id="edge1" class="edge">
<title>LoadingComponent&#45;&gt;SystemModule</title>
<path fill="none" stroke="#000000" d="M346.8317,-122.0225C346.8317,-139.3734 346.8317,-163 346.8317,-163 346.8317,-163 237.144,-163 237.144,-163"/>
<polygon fill="#000000" stroke="#000000" points="237.144,-159.5001 227.144,-163 237.1439,-166.5001 237.144,-159.5001"/>
</g>
<!-- SnackBarComponent -->
<g id="node2" class="node">
<title>SnackBarComponent</title>
<polygon fill="#ffffb3" stroke="#000000" points="243.2562,-122 107.7438,-122 107.7438,-86 243.2562,-86 243.2562,-122"/>
<text text-anchor="middle" x="175.5" y="-99.8" font-family="Times,serif" font-size="14.00" fill="#000000">SnackBarComponent</text>
</g>
<!-- SnackBarComponent&#45;&gt;SystemModule -->
<g id="edge2" class="edge">
<title>SnackBarComponent&#45;&gt;SystemModule</title>
<path fill="none" stroke="#000000" d="M176.5,-122.1061C176.5,-122.1061 176.5,-140.991 176.5,-140.991"/>
<polygon fill="#000000" stroke="#000000" points="173.0001,-140.9909 176.5,-150.991 180.0001,-140.991 173.0001,-140.9909"/>
</g>
<!-- LoadingComponent  -->
<g id="node4" class="node">
<title>LoadingComponent </title>
<polygon fill="#fb8072" stroke="#000000" points="392.4911,-252 260.5089,-252 260.5089,-216 392.4911,-216 392.4911,-252"/>
<text text-anchor="middle" x="326.5" y="-229.8" font-family="Times,serif" font-size="14.00" fill="#000000">LoadingComponent </text>
</g>
<!-- SystemModule&#45;&gt;LoadingComponent  -->
<g id="edge3" class="edge">
<title>SystemModule&#45;&gt;LoadingComponent </title>
<path fill="none" stroke="#000000" stroke-dasharray="5,2" d="M226.9579,-175C262.6434,-175 304.1683,-175 304.1683,-175 304.1683,-175 304.1683,-205.9775 304.1683,-205.9775"/>
<polygon fill="#000000" stroke="#000000" points="300.6684,-205.9774 304.1683,-215.9775 307.6684,-205.9775 300.6684,-205.9774"/>
</g>
<!-- SnackBarComponent  -->
<g id="node5" class="node">
<title>SnackBarComponent </title>
<polygon fill="#fb8072" stroke="#000000" points="243.2562,-252 103.7438,-252 103.7438,-216 243.2562,-216 243.2562,-252"/>
<text text-anchor="middle" x="173.5" y="-229.8" font-family="Times,serif" font-size="14.00" fill="#000000">SnackBarComponent </text>
</g>
<!-- SystemModule&#45;&gt;SnackBarComponent  -->
<g id="edge4" class="edge">
<title>SystemModule&#45;&gt;SnackBarComponent </title>
<path fill="none" stroke="#000000" stroke-dasharray="5,2" d="M176.5,-187.1061C176.5,-187.1061 176.5,-205.991 176.5,-205.991"/>
<polygon fill="#000000" stroke="#000000" points="173.0001,-205.9909 176.5,-215.991 180.0001,-205.991 173.0001,-205.9909"/>
</g>
</g>
</svg>
