<?xml version="1.0" encoding="UTF-8" standalone="no"?>
<!DOCTYPE svg PUBLIC "-//W3C//DTD SVG 1.1//EN"
 "http://www.w3.org/Graphics/SVG/1.1/DTD/svg11.dtd">
<!-- Generated by graphviz version 2.40.1 (20161225.0304)
 -->
<!-- Title: dependencies Pages: 1 -->
<svg width="3336pt" height="290pt"
 viewBox="0.00 0.00 3336.00 290.00" xmlns="http://www.w3.org/2000/svg" xmlns:xlink="http://www.w3.org/1999/xlink">
<g id="graph0" class="graph" transform="scale(1 1) rotate(0) translate(4 286)">
<title>dependencies</title>
<polygon fill="#ffffff" stroke="transparent" points="-4,4 -4,-286 3332,-286 3332,4 -4,4"/>
<text text-anchor="start" x="1643.0091" y="-42.4" font-family="sans-serif" font-weight="bold" font-size="14.00" fill="#000000">Legend</text>
<polygon fill="#ffffb3" stroke="transparent" points="1430,-10 1430,-30 1450,-30 1450,-10 1430,-10"/>
<text text-anchor="start" x="1453.629" y="-15.4" font-family="sans-serif" font-size="14.00" fill="#000000"> &#160;Declarations</text>
<polygon fill="#8dd3c7" stroke="transparent" points="1543,-10 1543,-30 1563,-30 1563,-10 1543,-10"/>
<text text-anchor="start" x="1566.7251" y="-15.4" font-family="sans-serif" font-size="14.00" fill="#000000"> &#160;Module</text>
<polygon fill="#80b1d3" stroke="transparent" points="1629,-10 1629,-30 1649,-30 1649,-10 1629,-10"/>
<text text-anchor="start" x="1652.7812" y="-15.4" font-family="sans-serif" font-size="14.00" fill="#000000"> &#160;Bootstrap</text>
<polygon fill="#fdb462" stroke="transparent" points="1726,-10 1726,-30 1746,-30 1746,-10 1726,-10"/>
<text text-anchor="start" x="1749.6732" y="-15.4" font-family="sans-serif" font-size="14.00" fill="#000000"> &#160;Providers</text>
<polygon fill="#fb8072" stroke="transparent" points="1822,-10 1822,-30 1842,-30 1842,-10 1822,-10"/>
<text text-anchor="start" x="1845.7258" y="-15.4" font-family="sans-serif" font-size="14.00" fill="#000000"> &#160;Exports</text>
<g id="clust1" class="cluster">
<title>cluster_AppModule</title>
<polygon fill="none" stroke="#000000" stroke-dasharray="1,5" points="8,-70 8,-274 2685,-274 2685,-70 8,-70"/>
</g>
<g id="clust2" class="cluster">
<title>cluster_AppModule_declarations</title>
<polygon fill="none" stroke="#000000" points="16,-78 16,-130 2406,-130 2406,-78 16,-78"/>
</g>
<g id="clust20" class="cluster">
<title>cluster_AppModule_imports</title>
<polygon fill="none" stroke="#000000" points="2414,-78 2414,-130 2677,-130 2677,-78 2414,-78"/>
</g>
<g id="clust22" class="cluster">
<title>cluster_AppModule_bootstrap</title>
<polygon fill="none" stroke="#000000" points="1301,-214 1301,-266 1425,-266 1425,-214 1301,-214"/>
</g>
<g id="clust30" class="cluster">
<title>cluster_SystemModule</title>
<polygon fill="none" stroke="#000000" stroke-dasharray="1,5" points="2693,-138 2693,-206 3320,-206 3320,-138 2693,-138"/>
</g>
<g id="clust31" class="cluster">
<title>cluster_SystemModule_declarations</title>
<polygon fill="none" stroke="#000000" points="3014,-146 3014,-198 3312,-198 3312,-146 3014,-146"/>
</g>
<g id="clust35" class="cluster">
<title>cluster_SystemModule_exports</title>
<polygon fill="none" stroke="#000000" points="2701,-146 2701,-198 3006,-198 3006,-146 2701,-146"/>
</g>
<!-- AboutComponent -->
<g id="node1" class="node">
<title>AboutComponent</title>
<polygon fill="#ffffb3" stroke="#000000" points="2398.3301,-122 2281.6699,-122 2281.6699,-86 2398.3301,-86 2398.3301,-122"/>
<text text-anchor="middle" x="2340" y="-99.8" font-family="Times,serif" font-size="14.00" fill="#000000">AboutComponent</text>
</g>
<!-- AppModule -->
<g id="node18" class="node">
<title>AppModule</title>
<polygon fill="#8dd3c7" stroke="#000000" points="1404.6571,-190 1401.6571,-194 1380.6571,-194 1377.6571,-190 1321.3429,-190 1321.3429,-154 1404.6571,-154 1404.6571,-190"/>
<text text-anchor="middle" x="1363" y="-167.8" font-family="Times,serif" font-size="14.00" fill="#000000">AppModule</text>
</g>
<!-- AboutComponent&#45;&gt;AppModule -->
<g id="edge1" class="edge">
<title>AboutComponent&#45;&gt;AppModule</title>
<path fill="none" stroke="#000000" d="M2340,-122.2479C2340,-145.0179 2340,-181 2340,-181 2340,-181 1414.6679,-181 1414.6679,-181"/>
<polygon fill="#000000" stroke="#000000" points="1414.668,-177.5001 1404.6679,-181 1414.6679,-184.5001 1414.668,-177.5001"/>
</g>
<!-- AdminComponent -->
<g id="node2" class="node">
<title>AdminComponent</title>
<polygon fill="#ffffb3" stroke="#000000" points="2264.2204,-122 2143.7796,-122 2143.7796,-86 2264.2204,-86 2264.2204,-122"/>
<text text-anchor="middle" x="2204" y="-99.8" font-family="Times,serif" font-size="14.00" fill="#000000">AdminComponent</text>
</g>
<!-- AdminComponent&#45;&gt;AppModule -->
<g id="edge2" class="edge">
<title>AdminComponent&#45;&gt;AppModule</title>
<path fill="none" stroke="#000000" d="M2204,-122.0449C2204,-143.6623 2204,-177 2204,-177 2204,-177 1414.7053,-177 1414.7053,-177"/>
<polygon fill="#000000" stroke="#000000" points="1414.7054,-173.5001 1404.7053,-177 1414.7053,-180.5001 1414.7054,-173.5001"/>
</g>
<!-- AppComponent -->
<g id="node3" class="node">
<title>AppComponent</title>
<polygon fill="#ffffb3" stroke="#000000" points="2125.9399,-122 2020.0601,-122 2020.0601,-86 2125.9399,-86 2125.9399,-122"/>
<text text-anchor="middle" x="2073" y="-99.8" font-family="Times,serif" font-size="14.00" fill="#000000">AppComponent</text>
</g>
<!-- AppComponent&#45;&gt;AppModule -->
<g id="edge3" class="edge">
<title>AppComponent&#45;&gt;AppModule</title>
<path fill="none" stroke="#000000" d="M2073,-122.0267C2073,-142.7672 2073,-174 2073,-174 2073,-174 1414.763,-174 1414.763,-174"/>
<polygon fill="#000000" stroke="#000000" points="1414.7631,-170.5001 1404.763,-174 1414.763,-177.5001 1414.7631,-170.5001"/>
</g>
<!-- ArticlesComponent -->
<g id="node4" class="node">
<title>ArticlesComponent</title>
<polygon fill="#ffffb3" stroke="#000000" points="2001.6457,-122 1876.3543,-122 1876.3543,-86 2001.6457,-86 2001.6457,-122"/>
<text text-anchor="middle" x="1939" y="-99.8" font-family="Times,serif" font-size="14.00" fill="#000000">ArticlesComponent</text>
</g>
<!-- ArticlesComponent&#45;&gt;AppModule -->
<g id="edge4" class="edge">
<title>ArticlesComponent&#45;&gt;AppModule</title>
<path fill="none" stroke="#000000" d="M1939,-122.308C1939,-142.1455 1939,-171 1939,-171 1939,-171 1414.8885,-171 1414.8885,-171"/>
<polygon fill="#000000" stroke="#000000" points="1414.8885,-167.5001 1404.8885,-171 1414.8884,-174.5001 1414.8885,-167.5001"/>
</g>
<!-- CategoriesComponent -->
<g id="node5" class="node">
<title>CategoriesComponent</title>
<polygon fill="#ffffb3" stroke="#000000" points="1858.6993,-122 1717.3007,-122 1717.3007,-86 1858.6993,-86 1858.6993,-122"/>
<text text-anchor="middle" x="1788" y="-99.8" font-family="Times,serif" font-size="14.00" fill="#000000">CategoriesComponent</text>
</g>
<!-- CategoriesComponent&#45;&gt;AppModule -->
<g id="edge5" class="edge">
<title>CategoriesComponent&#45;&gt;AppModule</title>
<path fill="none" stroke="#000000" d="M1788,-122.1686C1788,-141.0898 1788,-168 1788,-168 1788,-168 1414.9138,-168 1414.9138,-168"/>
<polygon fill="#000000" stroke="#000000" points="1414.9138,-164.5001 1404.9138,-168 1414.9137,-171.5001 1414.9138,-164.5001"/>
</g>
<!-- ContactComponent -->
<g id="node6" class="node">
<title>ContactComponent</title>
<polygon fill="#ffffb3" stroke="#000000" points="1699.3795,-122 1574.6205,-122 1574.6205,-86 1699.3795,-86 1699.3795,-122"/>
<text text-anchor="middle" x="1637" y="-99.8" font-family="Times,serif" font-size="14.00" fill="#000000">ContactComponent</text>
</g>
<!-- ContactComponent&#45;&gt;AppModule -->
<g id="edge6" class="edge">
<title>ContactComponent&#45;&gt;AppModule</title>
<path fill="none" stroke="#000000" d="M1637,-122.002C1637,-139.6754 1637,-164 1637,-164 1637,-164 1414.913,-164 1414.913,-164"/>
<polygon fill="#000000" stroke="#000000" points="1414.913,-160.5001 1404.913,-164 1414.9129,-167.5001 1414.913,-160.5001"/>
</g>
<!-- FooterComponent -->
<g id="node7" class="node">
<title>FooterComponent</title>
<polygon fill="#ffffb3" stroke="#000000" points="1556.8809,-122 1439.1191,-122 1439.1191,-86 1556.8809,-86 1556.8809,-122"/>
<text text-anchor="middle" x="1498" y="-99.8" font-family="Times,serif" font-size="14.00" fill="#000000">FooterComponent</text>
</g>
<!-- FooterComponent&#45;&gt;AppModule -->
<g id="edge7" class="edge">
<title>FooterComponent&#45;&gt;AppModule</title>
<path fill="none" stroke="#000000" d="M1498,-122.0352C1498,-138.7344 1498,-161 1498,-161 1498,-161 1414.9748,-161 1414.9748,-161"/>
<polygon fill="#000000" stroke="#000000" points="1414.9749,-157.5001 1404.9748,-161 1414.9748,-164.5001 1414.9749,-157.5001"/>
</g>
<!-- HomeComponent -->
<g id="node8" class="node">
<title>HomeComponent</title>
<polygon fill="#ffffb3" stroke="#000000" points="1420.5451,-122 1305.4549,-122 1305.4549,-86 1420.5451,-86 1420.5451,-122"/>
<text text-anchor="middle" x="1363" y="-99.8" font-family="Times,serif" font-size="14.00" fill="#000000">HomeComponent</text>
</g>
<!-- HomeComponent&#45;&gt;AppModule -->
<g id="edge8" class="edge">
<title>HomeComponent&#45;&gt;AppModule</title>
<path fill="none" stroke="#000000" d="M1363,-122.2228C1363,-122.2228 1363,-143.7269 1363,-143.7269"/>
<polygon fill="#000000" stroke="#000000" points="1359.5001,-143.7269 1363,-153.7269 1366.5001,-143.727 1359.5001,-143.7269"/>
</g>
<!-- LoginComponent -->
<g id="node9" class="node">
<title>LoginComponent</title>
<polygon fill="#ffffb3" stroke="#000000" points="1287.2758,-122 1172.7242,-122 1172.7242,-86 1287.2758,-86 1287.2758,-122"/>
<text text-anchor="middle" x="1230" y="-99.8" font-family="Times,serif" font-size="14.00" fill="#000000">LoginComponent</text>
</g>
<!-- LoginComponent&#45;&gt;AppModule -->
<g id="edge9" class="edge">
<title>LoginComponent&#45;&gt;AppModule</title>
<path fill="none" stroke="#000000" d="M1230,-122.2819C1230,-137.9478 1230,-158 1230,-158 1230,-158 1311.2829,-158 1311.2829,-158"/>
<polygon fill="#000000" stroke="#000000" points="1311.2829,-161.5001 1321.2829,-158 1311.2828,-154.5001 1311.2829,-161.5001"/>
</g>
<!-- LogoutComponent -->
<g id="node10" class="node">
<title>LogoutComponent</title>
<polygon fill="#ffffb3" stroke="#000000" points="1154.7758,-122 1033.2242,-122 1033.2242,-86 1154.7758,-86 1154.7758,-122"/>
<text text-anchor="middle" x="1094" y="-99.8" font-family="Times,serif" font-size="14.00" fill="#000000">LogoutComponent</text>
</g>
<!-- LogoutComponent&#45;&gt;AppModule -->
<g id="edge10" class="edge">
<title>LogoutComponent&#45;&gt;AppModule</title>
<path fill="none" stroke="#000000" d="M1094,-122.0336C1094,-139.0597 1094,-162 1094,-162 1094,-162 1311.2639,-162 1311.2639,-162"/>
<polygon fill="#000000" stroke="#000000" points="1311.2639,-165.5001 1321.2639,-162 1311.2639,-158.5001 1311.2639,-165.5001"/>
</g>
<!-- MediasComponent -->
<g id="node11" class="node">
<title>MediasComponent</title>
<polygon fill="#ffffb3" stroke="#000000" points="1015.0423,-122 892.9577,-122 892.9577,-86 1015.0423,-86 1015.0423,-122"/>
<text text-anchor="middle" x="954" y="-99.8" font-family="Times,serif" font-size="14.00" fill="#000000">MediasComponent</text>
</g>
<!-- MediasComponent&#45;&gt;AppModule -->
<g id="edge11" class="edge">
<title>MediasComponent&#45;&gt;AppModule</title>
<path fill="none" stroke="#000000" d="M954,-122.302C954,-140.2699 954,-165 954,-165 954,-165 1311.1519,-165 1311.1519,-165"/>
<polygon fill="#000000" stroke="#000000" points="1311.1519,-168.5001 1321.1519,-165 1311.1519,-161.5001 1311.1519,-168.5001"/>
</g>
<!-- NavBarComponent -->
<g id="node12" class="node">
<title>NavBarComponent</title>
<polygon fill="#ffffb3" stroke="#000000" points="874.3655,-122 749.6345,-122 749.6345,-86 874.3655,-86 874.3655,-122"/>
<text text-anchor="middle" x="812" y="-99.8" font-family="Times,serif" font-size="14.00" fill="#000000">NavBarComponent</text>
</g>
<!-- NavBarComponent&#45;&gt;AppModule -->
<g id="edge12" class="edge">
<title>NavBarComponent&#45;&gt;AppModule</title>
<path fill="none" stroke="#000000" d="M812,-122.1061C812,-141.3391 812,-169 812,-169 812,-169 1311.1332,-169 1311.1332,-169"/>
<polygon fill="#000000" stroke="#000000" points="1311.1332,-172.5001 1321.1332,-169 1311.1332,-165.5001 1311.1332,-172.5001"/>
</g>
<!-- NotFoundComponent -->
<g id="node13" class="node">
<title>NotFoundComponent</title>
<polygon fill="#ffffb3" stroke="#000000" points="732.1122,-122 593.8878,-122 593.8878,-86 732.1122,-86 732.1122,-122"/>
<text text-anchor="middle" x="663" y="-99.8" font-family="Times,serif" font-size="14.00" fill="#000000">NotFoundComponent</text>
</g>
<!-- NotFoundComponent&#45;&gt;AppModule -->
<g id="edge13" class="edge">
<title>NotFoundComponent&#45;&gt;AppModule</title>
<path fill="none" stroke="#000000" d="M663,-122.2228C663,-142.3652 663,-172 663,-172 663,-172 1311.3081,-172 1311.3081,-172"/>
<polygon fill="#000000" stroke="#000000" points="1311.3082,-175.5001 1321.3081,-172 1311.3081,-168.5001 1311.3082,-175.5001"/>
</g>
<!-- ProfileComponent -->
<g id="node14" class="node">
<title>ProfileComponent</title>
<polygon fill="#ffffb3" stroke="#000000" points="575.9328,-122 456.0672,-122 456.0672,-86 575.9328,-86 575.9328,-122"/>
<text text-anchor="middle" x="516" y="-99.8" font-family="Times,serif" font-size="14.00" fill="#000000">ProfileComponent</text>
</g>
<!-- ProfileComponent&#45;&gt;AppModule -->
<g id="edge14" class="edge">
<title>ProfileComponent&#45;&gt;AppModule</title>
<path fill="none" stroke="#000000" d="M516,-122.1686C516,-143.498 516,-176 516,-176 516,-176 1311.286,-176 1311.286,-176"/>
<polygon fill="#000000" stroke="#000000" points="1311.2861,-179.5001 1321.286,-176 1311.286,-172.5001 1311.2861,-179.5001"/>
</g>
<!-- RegisterComponent -->
<g id="node15" class="node">
<title>RegisterComponent</title>
<polygon fill="#ffffb3" stroke="#000000" points="437.9846,-122 310.0154,-122 310.0154,-86 437.9846,-86 437.9846,-122"/>
<text text-anchor="middle" x="374" y="-99.8" font-family="Times,serif" font-size="14.00" fill="#000000">RegisterComponent</text>
</g>
<!-- RegisterComponent&#45;&gt;AppModule -->
<g id="edge15" class="edge">
<title>RegisterComponent&#45;&gt;AppModule</title>
<path fill="none" stroke="#000000" d="M374,-122.0109C374,-144.4852 374,-180 374,-180 374,-180 1311.1356,-180 1311.1356,-180"/>
<polygon fill="#000000" stroke="#000000" points="1311.1356,-183.5001 1321.1356,-180 1311.1356,-176.5001 1311.1356,-183.5001"/>
</g>
<!-- TaskOverviewDialog -->
<g id="node16" class="node">
<title>TaskOverviewDialog</title>
<polygon fill="#ffffb3" stroke="#000000" points="292.0087,-122 155.9913,-122 155.9913,-86 292.0087,-86 292.0087,-122"/>
<text text-anchor="middle" x="224" y="-99.8" font-family="Times,serif" font-size="14.00" fill="#000000">TaskOverviewDialog</text>
</g>
<!-- TaskOverviewDialog&#45;&gt;AppModule -->
<g id="edge16" class="edge">
<title>TaskOverviewDialog&#45;&gt;AppModule</title>
<path fill="none" stroke="#000000" d="M224,-122.3228C224,-145.6602 224,-183 224,-183 224,-183 1311.1116,-183 1311.1116,-183"/>
<polygon fill="#000000" stroke="#000000" points="1311.1116,-186.5001 1321.1116,-183 1311.1115,-179.5001 1311.1116,-186.5001"/>
</g>
<!-- TasksComponent -->
<g id="node17" class="node">
<title>TasksComponent</title>
<polygon fill="#ffffb3" stroke="#000000" points="137.9888,-122 24.0112,-122 24.0112,-86 137.9888,-86 137.9888,-122"/>
<text text-anchor="middle" x="81" y="-99.8" font-family="Times,serif" font-size="14.00" fill="#000000">TasksComponent</text>
</g>
<!-- TasksComponent&#45;&gt;AppModule -->
<g id="edge17" class="edge">
<title>TasksComponent&#45;&gt;AppModule</title>
<path fill="none" stroke="#000000" d="M81,-122.0098C81,-146.4207 81,-187 81,-187 81,-187 1311.0744,-187 1311.0744,-187"/>
<polygon fill="#000000" stroke="#000000" points="1311.0745,-190.5001 1321.0744,-187 1311.0744,-183.5001 1311.0745,-190.5001"/>
</g>
<!-- AppComponent  -->
<g id="node21" class="node">
<title>AppComponent </title>
<polygon fill="#80b1d3" stroke="#000000" points="1417.439,-258 1308.561,-258 1308.561,-222 1417.439,-222 1417.439,-258"/>
<text text-anchor="middle" x="1363" y="-235.8" font-family="Times,serif" font-size="14.00" fill="#000000">AppComponent </text>
</g>
<!-- AppModule&#45;&gt;AppComponent  -->
<g id="edge20" class="edge">
<title>AppModule&#45;&gt;AppComponent </title>
<path fill="none" stroke="#000000" stroke-dasharray="1,5" d="M1363,-190.2228C1363,-190.2228 1363,-211.7269 1363,-211.7269"/>
<polygon fill="#000000" stroke="#000000" points="1359.5001,-211.7269 1363,-221.7269 1366.5001,-211.727 1359.5001,-211.7269"/>
</g>
<!-- AppRoutingModule -->
<g id="node19" class="node">
<title>AppRoutingModule</title>
<polygon fill="#8dd3c7" stroke="#000000" points="2550.2744,-122 2547.2744,-126 2526.2744,-126 2523.2744,-122 2421.7256,-122 2421.7256,-86 2550.2744,-86 2550.2744,-122"/>
<text text-anchor="middle" x="2486" y="-99.8" font-family="Times,serif" font-size="14.00" fill="#000000">AppRoutingModule</text>
</g>
<!-- AppRoutingModule&#45;&gt;AppModule -->
<g id="edge18" class="edge">
<title>AppRoutingModule&#45;&gt;AppModule</title>
<path fill="none" stroke="#000000" d="M2486,-122.1532C2486,-145.7566 2486,-184 2486,-184 2486,-184 1414.9734,-184 1414.9734,-184"/>
<polygon fill="#000000" stroke="#000000" points="1414.9734,-180.5001 1404.9734,-184 1414.9733,-187.5001 1414.9734,-180.5001"/>
</g>
<!-- SystemModule -->
<g id="node20" class="node">
<title>SystemModule</title>
<polygon fill="#8dd3c7" stroke="#000000" points="2669.2731,-122 2666.2731,-126 2645.2731,-126 2642.2731,-122 2568.7269,-122 2568.7269,-86 2669.2731,-86 2669.2731,-122"/>
<text text-anchor="middle" x="2619" y="-99.8" font-family="Times,serif" font-size="14.00" fill="#000000">SystemModule</text>
</g>
<!-- SystemModule&#45;&gt;AppModule -->
<g id="edge19" class="edge">
<title>SystemModule&#45;&gt;AppModule</title>
<path fill="none" stroke="#000000" d="M2602.2045,-122.0098C2602.2045,-146.4207 2602.2045,-187 2602.2045,-187 2602.2045,-187 1414.9406,-187 1414.9406,-187"/>
<polygon fill="#000000" stroke="#000000" points="1414.9407,-183.5001 1404.9406,-187 1414.9406,-190.5001 1414.9407,-183.5001"/>
</g>
<!-- LoadingComponent  -->
<g id="node24" class="node">
<title>LoadingComponent </title>
<polygon fill="#fb8072" stroke="#000000" points="2997.9911,-190 2866.0089,-190 2866.0089,-154 2997.9911,-154 2997.9911,-190"/>
<text text-anchor="middle" x="2932" y="-167.8" font-family="Times,serif" font-size="14.00" fill="#000000">LoadingComponent </text>
</g>
<!-- SystemModule&#45;&gt;LoadingComponent  -->
<g id="edge23" class="edge">
<title>SystemModule&#45;&gt;LoadingComponent </title>
<path fill="none" stroke="#000000" stroke-dasharray="5,2" d="M2669.2889,-113C2757.7667,-113 2932,-113 2932,-113 2932,-113 2932,-143.9775 2932,-143.9775"/>
<polygon fill="#000000" stroke="#000000" points="2928.5001,-143.9774 2932,-153.9775 2935.5001,-143.9775 2928.5001,-143.9774"/>
</g>
<!-- SnackBarComponent  -->
<g id="node25" class="node">
<title>SnackBarComponent </title>
<polygon fill="#fb8072" stroke="#000000" points="2848.7562,-190 2709.2438,-190 2709.2438,-154 2848.7562,-154 2848.7562,-190"/>
<text text-anchor="middle" x="2779" y="-167.8" font-family="Times,serif" font-size="14.00" fill="#000000">SnackBarComponent </text>
</g>
<!-- SystemModule&#45;&gt;SnackBarComponent  -->
<g id="edge24" class="edge">
<title>SystemModule&#45;&gt;SnackBarComponent </title>
<path fill="none" stroke="#000000" stroke-dasharray="5,2" d="M2635.7955,-122.2819C2635.7955,-137.9478 2635.7955,-158 2635.7955,-158 2635.7955,-158 2699.0758,-158 2699.0758,-158"/>
<polygon fill="#000000" stroke="#000000" points="2699.0758,-161.5001 2709.0758,-158 2699.0757,-154.5001 2699.0758,-161.5001"/>
</g>
<!-- LoadingComponent -->
<g id="node22" class="node">
<title>LoadingComponent</title>
<polygon fill="#ffffb3" stroke="#000000" points="3303.9902,-190 3176.0098,-190 3176.0098,-154 3303.9902,-154 3303.9902,-190"/>
<text text-anchor="middle" x="3240" y="-167.8" font-family="Times,serif" font-size="14.00" fill="#000000">LoadingComponent</text>
</g>
<!-- LoadingComponent&#45;&gt;SystemModule -->
<g id="edge21" class="edge">
<title>LoadingComponent&#45;&gt;SystemModule</title>
<path fill="none" stroke="#000000" d="M3240,-153.7521C3240,-130.9821 3240,-95 3240,-95 3240,-95 2679.293,-95 2679.293,-95"/>
<polygon fill="#000000" stroke="#000000" points="2679.293,-91.5001 2669.293,-95 2679.293,-98.5001 2679.293,-91.5001"/>
</g>
<!-- SnackBarComponent -->
<g id="node23" class="node">
<title>SnackBarComponent</title>
<polygon fill="#ffffb3" stroke="#000000" points="3157.7562,-190 3022.2438,-190 3022.2438,-154 3157.7562,-154 3157.7562,-190"/>
<text text-anchor="middle" x="3090" y="-167.8" font-family="Times,serif" font-size="14.00" fill="#000000">SnackBarComponent</text>
</g>
<!-- SnackBarComponent&#45;&gt;SystemModule -->
<g id="edge22" class="edge">
<title>SnackBarComponent&#45;&gt;SystemModule</title>
<path fill="none" stroke="#000000" d="M3090,-153.7772C3090,-133.6348 3090,-104 3090,-104 3090,-104 2679.4053,-104 2679.4053,-104"/>
<polygon fill="#000000" stroke="#000000" points="2679.4053,-100.5001 2669.4053,-104 2679.4052,-107.5001 2679.4053,-100.5001"/>
</g>
</g>
</svg>
