<?xml version="1.0" encoding="UTF-8" standalone="no"?>
<!DOCTYPE svg PUBLIC "-//W3C//DTD SVG 1.1//EN"
 "http://www.w3.org/Graphics/SVG/1.1/DTD/svg11.dtd">
<!-- Generated by graphviz version 2.40.1 (20161225.0304)
 -->
<!-- Title: dependencies Pages: 1 -->
<svg width="2701pt" height="284pt"
 viewBox="0.00 0.00 2701.00 284.00" xmlns="http://www.w3.org/2000/svg" xmlns:xlink="http://www.w3.org/1999/xlink">
<g id="graph0" class="graph" transform="scale(1 1) rotate(0) translate(4 280)">
<title>dependencies</title>
<polygon fill="#ffffff" stroke="transparent" points="-4,4 -4,-280 2697,-280 2697,4 -4,4"/>
<text text-anchor="start" x="1325.5091" y="-42.4" font-family="sans-serif" font-weight="bold" font-size="14.00" fill="#000000">Legend</text>
<polygon fill="#ffffb3" stroke="transparent" points="1112.5,-10 1112.5,-30 1132.5,-30 1132.5,-10 1112.5,-10"/>
<text text-anchor="start" x="1136.129" y="-15.4" font-family="sans-serif" font-size="14.00" fill="#000000"> &#160;Declarations</text>
<polygon fill="#8dd3c7" stroke="transparent" points="1225.5,-10 1225.5,-30 1245.5,-30 1245.5,-10 1225.5,-10"/>
<text text-anchor="start" x="1249.2251" y="-15.4" font-family="sans-serif" font-size="14.00" fill="#000000"> &#160;Module</text>
<polygon fill="#80b1d3" stroke="transparent" points="1311.5,-10 1311.5,-30 1331.5,-30 1331.5,-10 1311.5,-10"/>
<text text-anchor="start" x="1335.2812" y="-15.4" font-family="sans-serif" font-size="14.00" fill="#000000"> &#160;Bootstrap</text>
<polygon fill="#fdb462" stroke="transparent" points="1408.5,-10 1408.5,-30 1428.5,-30 1428.5,-10 1408.5,-10"/>
<text text-anchor="start" x="1432.1732" y="-15.4" font-family="sans-serif" font-size="14.00" fill="#000000"> &#160;Providers</text>
<polygon fill="#fb8072" stroke="transparent" points="1504.5,-10 1504.5,-30 1524.5,-30 1524.5,-10 1504.5,-10"/>
<text text-anchor="start" x="1528.2258" y="-15.4" font-family="sans-serif" font-size="14.00" fill="#000000"> &#160;Exports</text>
<g id="clust1" class="cluster">
<title>cluster_AppModule</title>
<polygon fill="none" stroke="#000000" stroke-dasharray="1,5" points="8,-70 8,-268 2685,-268 2685,-70 8,-70"/>
</g>
<g id="clust2" class="cluster">
<title>cluster_AppModule_declarations</title>
<polygon fill="none" stroke="#000000" points="287,-78 287,-130 2677,-130 2677,-78 287,-78"/>
</g>
<g id="clust20" class="cluster">
<title>cluster_AppModule_imports</title>
<polygon fill="none" stroke="#000000" points="16,-78 16,-130 279,-130 279,-78 16,-78"/>
</g>
<g id="clust22" class="cluster">
<title>cluster_AppModule_bootstrap</title>
<polygon fill="none" stroke="#000000" points="1303,-208 1303,-260 1427,-260 1427,-208 1303,-208"/>
</g>
<!-- AboutComponent -->
<g id="node1" class="node">
<title>AboutComponent</title>
<polygon fill="#ffffb3" stroke="#000000" points="2669.3301,-122 2552.6699,-122 2552.6699,-86 2669.3301,-86 2669.3301,-122"/>
<text text-anchor="middle" x="2611" y="-99.8" font-family="Times,serif" font-size="14.00" fill="#000000">AboutComponent</text>
</g>
<!-- AppModule -->
<g id="node18" class="node">
<title>AppModule</title>
<polygon fill="#8dd3c7" stroke="#000000" points="1406.6571,-187 1403.6571,-191 1382.6571,-191 1379.6571,-187 1323.3429,-187 1323.3429,-151 1406.6571,-151 1406.6571,-187"/>
<text text-anchor="middle" x="1365" y="-164.8" font-family="Times,serif" font-size="14.00" fill="#000000">AppModule</text>
</g>
<!-- AboutComponent&#45;&gt;AppModule -->
<g id="edge1" class="edge">
<title>AboutComponent&#45;&gt;AppModule</title>
<path fill="none" stroke="#000000" d="M2611,-122.1532C2611,-145.7566 2611,-184 2611,-184 2611,-184 1416.8129,-184 1416.8129,-184"/>
<polygon fill="#000000" stroke="#000000" points="1416.813,-180.5001 1406.8129,-184 1416.8129,-187.5001 1416.813,-180.5001"/>
</g>
<!-- AdminComponent -->
<g id="node2" class="node">
<title>AdminComponent</title>
<polygon fill="#ffffb3" stroke="#000000" points="2535.2204,-122 2414.7796,-122 2414.7796,-86 2535.2204,-86 2535.2204,-122"/>
<text text-anchor="middle" x="2475" y="-99.8" font-family="Times,serif" font-size="14.00" fill="#000000">AdminComponent</text>
</g>
<!-- AdminComponent&#45;&gt;AppModule -->
<g id="edge2" class="edge">
<title>AdminComponent&#45;&gt;AppModule</title>
<path fill="none" stroke="#000000" d="M2475,-122.0109C2475,-144.4852 2475,-180 2475,-180 2475,-180 1416.8221,-180 1416.8221,-180"/>
<polygon fill="#000000" stroke="#000000" points="1416.8221,-176.5001 1406.8221,-180 1416.822,-183.5001 1416.8221,-176.5001"/>
</g>
<!-- AppComponent -->
<g id="node3" class="node">
<title>AppComponent</title>
<polygon fill="#ffffb3" stroke="#000000" points="2396.9399,-122 2291.0601,-122 2291.0601,-86 2396.9399,-86 2396.9399,-122"/>
<text text-anchor="middle" x="2344" y="-99.8" font-family="Times,serif" font-size="14.00" fill="#000000">AppComponent</text>
</g>
<!-- AppComponent&#45;&gt;AppModule -->
<g id="edge3" class="edge">
<title>AppComponent&#45;&gt;AppModule</title>
<path fill="none" stroke="#000000" d="M2344,-122.0449C2344,-143.6623 2344,-177 2344,-177 2344,-177 1416.7532,-177 1416.7532,-177"/>
<polygon fill="#000000" stroke="#000000" points="1416.7533,-173.5001 1406.7532,-177 1416.7532,-180.5001 1416.7533,-173.5001"/>
</g>
<!-- ArticlesComponent -->
<g id="node4" class="node">
<title>ArticlesComponent</title>
<polygon fill="#ffffb3" stroke="#000000" points="2272.6457,-122 2147.3543,-122 2147.3543,-86 2272.6457,-86 2272.6457,-122"/>
<text text-anchor="middle" x="2210" y="-99.8" font-family="Times,serif" font-size="14.00" fill="#000000">ArticlesComponent</text>
</g>
<!-- ArticlesComponent&#45;&gt;AppModule -->
<g id="edge4" class="edge">
<title>ArticlesComponent&#45;&gt;AppModule</title>
<path fill="none" stroke="#000000" d="M2210,-122.1289C2210,-142.5724 2210,-173 2210,-173 2210,-173 1416.9037,-173 1416.9037,-173"/>
<polygon fill="#000000" stroke="#000000" points="1416.9037,-169.5001 1406.9037,-173 1416.9036,-176.5001 1416.9037,-169.5001"/>
</g>
<!-- CategoriesComponent -->
<g id="node5" class="node">
<title>CategoriesComponent</title>
<polygon fill="#ffffb3" stroke="#000000" points="2129.6993,-122 1988.3007,-122 1988.3007,-86 2129.6993,-86 2129.6993,-122"/>
<text text-anchor="middle" x="2059" y="-99.8" font-family="Times,serif" font-size="14.00" fill="#000000">CategoriesComponent</text>
</g>
<!-- CategoriesComponent&#45;&gt;AppModule -->
<g id="edge5" class="edge">
<title>CategoriesComponent&#45;&gt;AppModule</title>
<path fill="none" stroke="#000000" d="M2059,-122.1061C2059,-141.3391 2059,-169 2059,-169 2059,-169 1416.8499,-169 1416.8499,-169"/>
<polygon fill="#000000" stroke="#000000" points="1416.85,-165.5001 1406.8499,-169 1416.8499,-172.5001 1416.85,-165.5001"/>
</g>
<!-- ContactComponent -->
<g id="node6" class="node">
<title>ContactComponent</title>
<polygon fill="#ffffb3" stroke="#000000" points="1970.3795,-122 1845.6205,-122 1845.6205,-86 1970.3795,-86 1970.3795,-122"/>
<text text-anchor="middle" x="1908" y="-99.8" font-family="Times,serif" font-size="14.00" fill="#000000">ContactComponent</text>
</g>
<!-- ContactComponent&#45;&gt;AppModule -->
<g id="edge6" class="edge">
<title>ContactComponent&#45;&gt;AppModule</title>
<path fill="none" stroke="#000000" d="M1908,-122.2667C1908,-140.5552 1908,-166 1908,-166 1908,-166 1416.7067,-166 1416.7067,-166"/>
<polygon fill="#000000" stroke="#000000" points="1416.7067,-162.5001 1406.7067,-166 1416.7066,-169.5001 1416.7067,-162.5001"/>
</g>
<!-- FooterComponent -->
<g id="node7" class="node">
<title>FooterComponent</title>
<polygon fill="#ffffb3" stroke="#000000" points="1827.8809,-122 1710.1191,-122 1710.1191,-86 1827.8809,-86 1827.8809,-122"/>
<text text-anchor="middle" x="1769" y="-99.8" font-family="Times,serif" font-size="14.00" fill="#000000">FooterComponent</text>
</g>
<!-- FooterComponent&#45;&gt;AppModule -->
<g id="edge7" class="edge">
<title>FooterComponent&#45;&gt;AppModule</title>
<path fill="none" stroke="#000000" d="M1769,-122.0336C1769,-139.0597 1769,-162 1769,-162 1769,-162 1416.7134,-162 1416.7134,-162"/>
<polygon fill="#000000" stroke="#000000" points="1416.7135,-158.5001 1406.7134,-162 1416.7134,-165.5001 1416.7135,-158.5001"/>
</g>
<!-- HomeComponent -->
<g id="node8" class="node">
<title>HomeComponent</title>
<polygon fill="#ffffb3" stroke="#000000" points="1691.5451,-122 1576.4549,-122 1576.4549,-86 1691.5451,-86 1691.5451,-122"/>
<text text-anchor="middle" x="1634" y="-99.8" font-family="Times,serif" font-size="14.00" fill="#000000">HomeComponent</text>
</g>
<!-- HomeComponent&#45;&gt;AppModule -->
<g id="edge8" class="edge">
<title>HomeComponent&#45;&gt;AppModule</title>
<path fill="none" stroke="#000000" d="M1634,-122.0091C1634,-138.0494 1634,-159 1634,-159 1634,-159 1416.7361,-159 1416.7361,-159"/>
<polygon fill="#000000" stroke="#000000" points="1416.7361,-155.5001 1406.7361,-159 1416.7361,-162.5001 1416.7361,-155.5001"/>
</g>
<!-- LoginComponent -->
<g id="node9" class="node">
<title>LoginComponent</title>
<polygon fill="#ffffb3" stroke="#000000" points="1558.2758,-122 1443.7242,-122 1443.7242,-86 1558.2758,-86 1558.2758,-122"/>
<text text-anchor="middle" x="1501" y="-99.8" font-family="Times,serif" font-size="14.00" fill="#000000">LoginComponent</text>
</g>
<!-- LoginComponent&#45;&gt;AppModule -->
<g id="edge9" class="edge">
<title>LoginComponent&#45;&gt;AppModule</title>
<path fill="none" stroke="#000000" d="M1501,-122.1243C1501,-136.7832 1501,-155 1501,-155 1501,-155 1416.9142,-155 1416.9142,-155"/>
<polygon fill="#000000" stroke="#000000" points="1416.9142,-151.5001 1406.9142,-155 1416.9142,-158.5001 1416.9142,-151.5001"/>
</g>
<!-- LogoutComponent -->
<g id="node10" class="node">
<title>LogoutComponent</title>
<polygon fill="#ffffb3" stroke="#000000" points="1425.7758,-122 1304.2242,-122 1304.2242,-86 1425.7758,-86 1425.7758,-122"/>
<text text-anchor="middle" x="1365" y="-99.8" font-family="Times,serif" font-size="14.00" fill="#000000">LogoutComponent</text>
</g>
<!-- LogoutComponent&#45;&gt;AppModule -->
<g id="edge10" class="edge">
<title>LogoutComponent&#45;&gt;AppModule</title>
<path fill="none" stroke="#000000" d="M1365,-122.1061C1365,-122.1061 1365,-140.991 1365,-140.991"/>
<polygon fill="#000000" stroke="#000000" points="1361.5001,-140.9909 1365,-150.991 1368.5001,-140.991 1361.5001,-140.9909"/>
</g>
<!-- MediasComponent -->
<g id="node11" class="node">
<title>MediasComponent</title>
<polygon fill="#ffffb3" stroke="#000000" points="1286.0423,-122 1163.9577,-122 1163.9577,-86 1286.0423,-86 1286.0423,-122"/>
<text text-anchor="middle" x="1225" y="-99.8" font-family="Times,serif" font-size="14.00" fill="#000000">MediasComponent</text>
</g>
<!-- MediasComponent&#45;&gt;AppModule -->
<g id="edge11" class="edge">
<title>MediasComponent&#45;&gt;AppModule</title>
<path fill="none" stroke="#000000" d="M1225,-122.1243C1225,-136.7832 1225,-155 1225,-155 1225,-155 1312.9954,-155 1312.9954,-155"/>
<polygon fill="#000000" stroke="#000000" points="1312.9954,-158.5001 1322.9954,-155 1312.9953,-151.5001 1312.9954,-158.5001"/>
</g>
<!-- NavBarComponent -->
<g id="node12" class="node">
<title>NavBarComponent</title>
<polygon fill="#ffffb3" stroke="#000000" points="1145.3655,-122 1020.6345,-122 1020.6345,-86 1145.3655,-86 1145.3655,-122"/>
<text text-anchor="middle" x="1083" y="-99.8" font-family="Times,serif" font-size="14.00" fill="#000000">NavBarComponent</text>
</g>
<!-- NavBarComponent&#45;&gt;AppModule -->
<g id="edge12" class="edge">
<title>NavBarComponent&#45;&gt;AppModule</title>
<path fill="none" stroke="#000000" d="M1083,-122.0091C1083,-138.0494 1083,-159 1083,-159 1083,-159 1313.0863,-159 1313.0863,-159"/>
<polygon fill="#000000" stroke="#000000" points="1313.0863,-162.5001 1323.0863,-159 1313.0862,-155.5001 1313.0863,-162.5001"/>
</g>
<!-- NotFoundComponent -->
<g id="node13" class="node">
<title>NotFoundComponent</title>
<polygon fill="#ffffb3" stroke="#000000" points="1003.1122,-122 864.8878,-122 864.8878,-86 1003.1122,-86 1003.1122,-122"/>
<text text-anchor="middle" x="934" y="-99.8" font-family="Times,serif" font-size="14.00" fill="#000000">NotFoundComponent</text>
</g>
<!-- NotFoundComponent&#45;&gt;AppModule -->
<g id="edge13" class="edge">
<title>NotFoundComponent&#45;&gt;AppModule</title>
<path fill="none" stroke="#000000" d="M934,-122.0336C934,-139.0597 934,-162 934,-162 934,-162 1313.2823,-162 1313.2823,-162"/>
<polygon fill="#000000" stroke="#000000" points="1313.2823,-165.5001 1323.2823,-162 1313.2823,-158.5001 1313.2823,-165.5001"/>
</g>
<!-- ProfileComponent -->
<g id="node14" class="node">
<title>ProfileComponent</title>
<polygon fill="#ffffb3" stroke="#000000" points="846.9328,-122 727.0672,-122 727.0672,-86 846.9328,-86 846.9328,-122"/>
<text text-anchor="middle" x="787" y="-99.8" font-family="Times,serif" font-size="14.00" fill="#000000">ProfileComponent</text>
</g>
<!-- ProfileComponent&#45;&gt;AppModule -->
<g id="edge14" class="edge">
<title>ProfileComponent&#45;&gt;AppModule</title>
<path fill="none" stroke="#000000" d="M787,-122.2667C787,-140.5552 787,-166 787,-166 787,-166 1312.9661,-166 1312.9661,-166"/>
<polygon fill="#000000" stroke="#000000" points="1312.9661,-169.5001 1322.9661,-166 1312.966,-162.5001 1312.9661,-169.5001"/>
</g>
<!-- RegisterComponent -->
<g id="node15" class="node">
<title>RegisterComponent</title>
<polygon fill="#ffffb3" stroke="#000000" points="708.9846,-122 581.0154,-122 581.0154,-86 708.9846,-86 708.9846,-122"/>
<text text-anchor="middle" x="645" y="-99.8" font-family="Times,serif" font-size="14.00" fill="#000000">RegisterComponent</text>
</g>
<!-- RegisterComponent&#45;&gt;AppModule -->
<g id="edge15" class="edge">
<title>RegisterComponent&#45;&gt;AppModule</title>
<path fill="none" stroke="#000000" d="M645,-122.1061C645,-141.3391 645,-169 645,-169 645,-169 1313.1777,-169 1313.1777,-169"/>
<polygon fill="#000000" stroke="#000000" points="1313.1777,-172.5001 1323.1777,-169 1313.1776,-165.5001 1313.1777,-172.5001"/>
</g>
<!-- TaskOverviewDialog -->
<g id="node16" class="node">
<title>TaskOverviewDialog</title>
<polygon fill="#ffffb3" stroke="#000000" points="563.0087,-122 426.9913,-122 426.9913,-86 563.0087,-86 563.0087,-122"/>
<text text-anchor="middle" x="495" y="-99.8" font-family="Times,serif" font-size="14.00" fill="#000000">TaskOverviewDialog</text>
</g>
<!-- TaskOverviewDialog&#45;&gt;AppModule -->
<g id="edge16" class="edge">
<title>TaskOverviewDialog&#45;&gt;AppModule</title>
<path fill="none" stroke="#000000" d="M495,-122.1289C495,-142.5724 495,-173 495,-173 495,-173 1313.3312,-173 1313.3312,-173"/>
<polygon fill="#000000" stroke="#000000" points="1313.3312,-176.5001 1323.3312,-173 1313.3312,-169.5001 1313.3312,-176.5001"/>
</g>
<!-- TasksComponent -->
<g id="node17" class="node">
<title>TasksComponent</title>
<polygon fill="#ffffb3" stroke="#000000" points="408.9888,-122 295.0112,-122 295.0112,-86 408.9888,-86 408.9888,-122"/>
<text text-anchor="middle" x="352" y="-99.8" font-family="Times,serif" font-size="14.00" fill="#000000">TasksComponent</text>
</g>
<!-- TasksComponent&#45;&gt;AppModule -->
<g id="edge17" class="edge">
<title>TasksComponent&#45;&gt;AppModule</title>
<path fill="none" stroke="#000000" d="M352,-122.0449C352,-143.6623 352,-177 352,-177 352,-177 1313.082,-177 1313.082,-177"/>
<polygon fill="#000000" stroke="#000000" points="1313.0821,-180.5001 1323.082,-177 1313.082,-173.5001 1313.0821,-180.5001"/>
</g>
<!-- AppComponent  -->
<g id="node21" class="node">
<title>AppComponent </title>
<polygon fill="#80b1d3" stroke="#000000" points="1419.439,-252 1310.561,-252 1310.561,-216 1419.439,-216 1419.439,-252"/>
<text text-anchor="middle" x="1365" y="-229.8" font-family="Times,serif" font-size="14.00" fill="#000000">AppComponent </text>
</g>
<!-- AppModule&#45;&gt;AppComponent  -->
<g id="edge20" class="edge">
<title>AppModule&#45;&gt;AppComponent </title>
<path fill="none" stroke="#000000" stroke-dasharray="1,5" d="M1365,-187.1061C1365,-187.1061 1365,-205.991 1365,-205.991"/>
<polygon fill="#000000" stroke="#000000" points="1361.5001,-205.9909 1365,-215.991 1368.5001,-205.991 1361.5001,-205.9909"/>
</g>
<!-- AppRoutingModule -->
<g id="node19" class="node">
<title>AppRoutingModule</title>
<polygon fill="#8dd3c7" stroke="#000000" points="271.2744,-122 268.2744,-126 247.2744,-126 244.2744,-122 142.7256,-122 142.7256,-86 271.2744,-86 271.2744,-122"/>
<text text-anchor="middle" x="207" y="-99.8" font-family="Times,serif" font-size="14.00" fill="#000000">AppRoutingModule</text>
</g>
<!-- AppRoutingModule&#45;&gt;AppModule -->
<g id="edge18" class="edge">
<title>AppRoutingModule&#45;&gt;AppModule</title>
<path fill="none" stroke="#000000" d="M207,-122.0109C207,-144.4852 207,-180 207,-180 207,-180 1313.102,-180 1313.102,-180"/>
<polygon fill="#000000" stroke="#000000" points="1313.1021,-183.5001 1323.102,-180 1313.102,-176.5001 1313.1021,-183.5001"/>
</g>
<!-- SystemModule -->
<g id="node20" class="node">
<title>SystemModule</title>
<polygon fill="#8dd3c7" stroke="#000000" points="124.2731,-122 121.2731,-126 100.2731,-126 97.2731,-122 23.7269,-122 23.7269,-86 124.2731,-86 124.2731,-122"/>
<text text-anchor="middle" x="74" y="-99.8" font-family="Times,serif" font-size="14.00" fill="#000000">SystemModule</text>
</g>
<!-- SystemModule&#45;&gt;AppModule -->
<g id="edge19" class="edge">
<title>SystemModule&#45;&gt;AppModule</title>
<path fill="none" stroke="#000000" d="M74,-122.1532C74,-145.7566 74,-184 74,-184 74,-184 1313.1449,-184 1313.1449,-184"/>
<polygon fill="#000000" stroke="#000000" points="1313.145,-187.5001 1323.1449,-184 1313.1449,-180.5001 1313.145,-187.5001"/>
</g>
</g>
</svg>
